<svg width="848" height="291" viewBox="0 0 848 291" fill="none" xmlns="http://www.w3.org/2000/svg">
<path d="M96.0177 291C76.0811 291 58.9159 286.496 44.5222 277.487C30.2179 268.389 19.2214 255.857 11.5329 239.891C3.84428 223.925 0 205.64 0 185.036C0 164.164 3.93369 145.745 11.8011 129.779C19.6684 113.724 30.7543 101.192 45.0586 92.1834C59.3629 83.1747 76.2152 78.6704 95.6154 78.6704C111.261 78.6704 125.207 81.5692 137.456 87.3669C149.704 93.0754 159.583 101.103 167.092 111.45C174.691 121.796 179.206 133.882 180.637 147.708H141.613C139.467 138.075 134.55 129.779 126.861 122.822C119.262 115.865 109.07 112.386 96.2859 112.386C85.1107 112.386 75.3212 115.33 66.9174 121.217C58.603 127.014 52.1213 135.309 47.4724 146.102C42.8235 156.806 40.4991 169.471 40.4991 184.099C40.4991 199.084 42.7788 212.017 47.3383 222.899C51.8978 233.781 58.3348 242.21 66.6492 248.186C75.053 254.162 84.9319 257.15 96.2859 257.15C103.885 257.15 110.769 255.768 116.938 253.003C123.196 250.149 128.426 246.09 132.628 240.828C136.919 235.565 139.914 229.232 141.613 221.829H180.637C179.206 235.119 174.87 246.982 167.629 257.418C160.387 267.854 150.687 276.06 138.528 282.036C126.459 288.012 112.289 291 96.0177 291Z" fill="#1E1E1E"/>
<path d="M223.516 286.852V81.3462L263.613 92.1834V286.852H223.516ZM243.766 49.6372C236.792 49.6372 230.802 47.3182 225.796 42.68C220.879 37.9526 218.42 32.3333 218.42 25.8221C218.42 19.2216 220.879 13.6023 225.796 8.96414C230.802 4.23679 236.792 1.87312 243.766 1.87312C250.739 1.87312 256.684 4.23679 261.601 8.96414C266.608 13.6023 269.111 19.2216 269.111 25.8221C269.111 32.3333 266.608 37.9526 261.601 42.68C256.684 47.3182 250.739 49.6372 243.766 49.6372Z" fill="#1E1E1E"/>
<path d="M317.556 286.852V81.3462H356.312V113.992H358.457C362.212 102.931 368.828 94.2349 378.304 87.9021C387.87 81.48 398.688 78.269 410.757 78.269C413.261 78.269 416.211 78.3582 419.608 78.5366C423.095 78.7149 425.822 78.9379 427.788 79.2055V117.47C426.179 117.024 423.318 116.534 419.206 115.999C415.093 115.374 410.981 115.062 406.868 115.062C397.392 115.062 388.943 117.069 381.523 121.083C374.192 125.007 368.381 130.493 364.09 137.539C359.798 144.497 357.653 152.435 357.653 161.354V286.852H317.556Z" fill="#1E1E1E"/>
<path d="M543.888 291C523.594 291 506.116 286.674 491.454 278.022C476.881 269.281 465.617 257.017 457.66 241.229C449.792 225.352 445.859 206.755 445.859 185.437C445.859 164.387 449.792 145.834 457.66 129.779C465.617 113.724 476.702 101.192 490.917 92.1834C505.222 83.1747 521.94 78.6704 541.072 78.6704C552.694 78.6704 563.959 80.5881 574.866 84.4235C585.773 88.2589 595.562 94.2796 604.234 102.486C612.906 110.692 619.746 121.35 624.752 134.462C629.759 147.485 632.262 163.317 632.262 181.959V196.141H468.522V166.171H592.97C592.97 155.646 590.824 146.325 586.533 138.208C582.241 130.002 576.207 123.536 568.429 118.808C560.74 114.081 551.711 111.717 541.34 111.717C530.075 111.717 520.241 114.482 511.837 120.012C503.523 125.453 497.086 132.589 492.527 141.419C488.057 150.16 485.821 159.66 485.821 169.917V193.331C485.821 207.067 488.235 218.752 493.063 228.385C497.98 238.018 504.819 245.377 513.581 250.461C522.342 255.456 532.579 257.953 544.29 257.953C551.89 257.953 558.818 256.883 565.076 254.742C571.334 252.512 576.743 249.212 581.303 244.841C585.862 240.471 589.349 235.075 591.763 228.652H632.262C629.222 239.802 621.221 256.392 613.353 264.777C605.575 273.072 595.786 279.538 583.985 284.177C572.273 288.726 558.908 291 543.888 291Z" fill="#1E1E1E"/>
<path d="M774.78 81.3462V113.457H658.378L667.5 81.3462H774.78ZM690.295 286.852V57.531C690.295 44.6869 693.111 34.0281 698.743 25.5545C704.376 16.9917 711.841 10.6143 721.139 6.42209C730.436 2.1407 740.539 0 751.446 0C759.492 0 766.376 0.668971 772.098 2.00691C777.819 3.25564 782.066 4.41518 784.838 5.48553L775.45 37.8635C773.573 37.3283 771.159 36.7039 768.209 35.9904C765.258 35.1876 761.682 34.7862 757.481 34.7862C747.736 34.7862 740.762 37.1945 736.56 42.011C732.448 46.8276 730.392 53.7848 730.392 62.8828V286.852H690.295Z" fill="#1E1E1E"/>
<path d="M821.179 289.394C813.848 289.394 807.546 286.808 802.271 281.634C796.996 276.372 794.359 270.039 794.359 262.636C794.359 255.322 796.996 249.078 802.271 243.905C807.546 238.642 813.848 236.011 821.179 236.011C828.51 236.011 834.813 238.642 840.088 243.905C845.363 249.078 848 255.322 848 262.636C848 267.542 846.748 272.046 844.245 276.149C841.831 280.163 838.613 283.374 834.59 285.782C830.567 288.19 826.097 289.394 821.179 289.394Z" fill="#1E1E1E"/>
</svg>
