<svg width="280" height="292" viewBox="0 0 280 292" fill="none" xmlns="http://www.w3.org/2000/svg">
<path fill-rule="evenodd" clip-rule="evenodd" d="M242.1 213H271.563C273.014 212.998 274.434 213.409 275.659 214.185C276.884 214.962 277.862 216.072 278.478 217.384C279.094 218.697 279.323 220.158 279.139 221.597C278.954 223.035 278.363 224.391 277.435 225.505L225.081 288.335C224.077 289.539 222.726 290.404 221.213 290.813C220.209 291.084 219.166 291.145 218.147 291L159 291H98C81.8218 291 66.4066 285.15 54.9669 273.71C43.5272 262.27 37.1004 246.755 37.1004 230.577L37.1004 78.0766H7.63742C6.18727 78.079 4.76651 77.6678 3.54181 76.8912C2.3171 76.1146 1.33921 75.0049 0.722897 73.6923C0.106579 72.3796 -0.122623 70.9184 0.0621613 69.4801C0.246945 68.0417 0.838071 66.6859 1.76617 65.5716L54.1194 2.74164C55.1243 1.53655 56.4765 0.670844 57.9916 0.262603C58.3571 0.164131 58.7277 0.0934329 59.1004 0.0503753V0H181C197.178 0 212.794 5.92677 224.234 17.3665C235.674 28.8062 242.1 44.3218 242.1 60.5V98H211.6V60.5C211.6 52.4109 208.387 44.6531 202.667 38.9333C196.947 33.2134 189.19 30 181.1 30H67.6004L67.6004 230.577C67.6004 238.666 70.8138 246.424 76.5337 252.143C82.2535 257.863 90.0113 261.077 98.1004 261.077L211.6 261.077L211.6 140.583L242.1 146.962V213Z" fill="#6E51F2"/>
</svg>
